# xmcd CD database file
#
# Track frame offsets:
#	150
#	1297
#	22243
#	39039
#	69431
#	87713
#	107905
#	134367
#	148152
#	172273
#	181349
#	201822
#	224848
#	246537
#
# Disc length: 3548 seconds
#
# Revision: 0
# Processed by: cddbd v1.5.2PL0 Copyright (c) Steve Scherf et al.
# Submitted via: CDex 1.51
#
DISCID=dc0dda0e
DTITLE=Jean Luc Ponty - The Acatama experience
DYEAR=2007
DGENRE=Jazz
TTITLE0=Intro
TTITLE1=Parisian Thoroughfare
TTITLE2=Premonition
TTITLE3=Point of No return
TTITLE4=Back in the 60's
TTITLE5=Without regrets
TTITLE6=Celtic Steps
TTITLE7=Desert Crossing
TTITLE8=Last memories of her
TTITLE9=The Acatama experience
TTITLE10=On my way to Bombay
TTITLE11=Still in love
TTITLE12=Euphoria
TTITLE13=To and fro
EXTD=YEAR: 2007
EXTT0=
EXTT1=
EXTT2=
EXTT3=
EXTT4=
EXTT5=
EXTT6=
EXTT7=
EXTT8=
EXTT9=
EXTT10=
EXTT11=
EXTT12=
EXTT13=
PLAYORDER=
